<svg xmlns="http://www.w3.org/2000/svg" viewBox="0 0 820 520">
  <defs>
    <style>
      .eagle-fill {
        fill: #ffffff;
      }
    </style>
  </defs>

  <!-- AIGLE + APAM -->
  <g id="logo" class="eagle-fill">

    <!-- AILES ANIMÉES -->
    <!-- Aile gauche -->
    <g id="left-wing">
      <path d="M120 210
               C 40 150 20 95 20 60
               C 85 90 155 130 215 185
               C 235 203 250 225 258 245
               C 262 255 262 268 255 275
               C 246 283 231 281 216 276
               C 190 267 155 246 120 210 Z" />
      <animateTransform
        attributeName="transform"
        type="rotate"
        values="8 260 230; -6 260 230; 8 260 230"
        keyTimes="0;0.5;1"
        dur="1.8s"
        repeatCount="indefinite"
        calcMode="spline"
        keySplines="0.25 0.1 0.25 1;0.25 0.1 0.25 1" />
    </g>

    <!-- Aile droite -->
    <g id="right-wing">
      <path d="M700 210
               C 780 150 800 95 800 60
               C 735 90 665 130 605 185
               C 585 203 570 225 562 245
               C 558 255 558 268 565 275
               C 574 283 589 281 604 276
               C 630 267 665 246 700 210 Z" />
      <animateTransform
        attributeName="transform"
        type="rotate"
        values="-8 560 230; 6 560 230; -8 560 230"
        keyTimes="0;0.5;1"
        dur="1.8s"
        repeatCount="indefinite"
        calcMode="spline"
        keySplines="0.25 0.1 0.25 1;0.25 0.1 0.25 1" />
    </g>

    <!-- TÊTE + CORPS (fixes) -->
    <!-- Tête -->
    <g id="head">
      <path d="M410 155
               C 375 155 345 185 345 220
               C 345 260 373 295 410 295
               C 447 295 475 260 475 220
               C 475 185 445 155 410 155 Z" />

      <!-- Yeux -->
      <path d="M380 205
               C 372 200 366 197 360 196
               C 368 188 380 184 394 184
               C 404 184 415 186 426 189
               C 420 195 414 199 405 203
               C 397 205 389 206 380 205 Z" />
      <circle cx="387" cy="197" r="6" />
      <circle cx="430" cy="197" r="6" />

      <!-- Bec -->
      <path d="M409 207
               L 425 225
               C 419 235 412 242 405 243
               C 398 242 391 235 385 225
               L 401 207 Z" />
    </g>

    <!-- Corps -->
    <g id="body">
      <path d="M410 270
               C 390 304 360 340 350 372
               C 345 388 346 401 355 411
               C 365 423 384 430 410 430
               C 436 430 455 423 465 411
               C 474 401 475 388 470 372
               C 460 340 430 304 410 270 Z" />

      <!-- Plumes basses -->
      <path d="M360 395
               C 355 415 365 433 382 443
               C 392 449 401 451 410 451
               C 419 451 428 449 438 443
               C 455 433 465 415 460 395
               C 444 404 427 408 410 408
               C 393 408 376 404 360 395 Z" />
    </g>

    <!-- TEXTE APAM (vectorisé) -->
    <g id="text" transform="translate(180, 470) scale(1.25)">
      <!-- A -->
      <path d="M40 80 L65 0 L95 0 L120 80 L100 80 L95 60 L65 60 L60 80 Z M70 45 L90 45 L80 15 Z"/>
      <!-- P -->
      <path d="M160 80 L160 0 L205 0 C225 0 242 15 242 35 C242 55 225 70 205 70 L185 70 L185 80 Z
               M185 20 L185 50 L205 50 C213 50 220 44 220 35 C220 26 213 20 205 20 Z"/>
      <!-- A -->
      <path d="M280 80 L305 0 L335 0 L360 80 L340 80 L335 60 L305 60 L300 80 Z M310 45 L330 45 L320 15 Z"/>
      <!-- M -->
      <path d="M400 80 L400 0 L425 0 L445 33 L465 0 L490 0 L490 80 L470 80 L470 32 L452 60 L438 60 L420 32 L420 80 Z"/>
    </g>

  </g>
</svg>
